<svg width="147" height="40" viewBox="0 0 147 40" fill="none" xmlns="http://www.w3.org/2000/svg">
<path d="M27.0991 39.0476H12.8974C11.6569 39.0476 10.5091 38.4938 9.73825 37.5328L0.884063 26.4738C0.113218 25.5128 -0.173187 24.2666 0.102705 23.0686L3.26189 9.27573C3.53779 8.07352 4.33392 7.07907 5.45015 6.54196L18.2446 0.40283C19.3608 -0.134277 20.6392 -0.134277 21.7554 0.40283L34.5498 6.54196C35.6661 7.07907 36.4643 8.07358 36.7381 9.27573L39.8973 23.0686C40.1732 24.2708 39.8868 25.5129 39.1159 26.4738L30.2618 37.5328C29.4909 38.4938 28.3368 39.0476 27.1026 39.0476H27.0991ZM19.4159 2.82029L6.62154 8.95943C6.24876 9.13566 5.98549 9.46926 5.89281 9.87208L2.73362 23.665C2.64095 24.0678 2.73362 24.4811 2.99267 24.8042L11.8469 35.8633C12.1059 36.1864 12.4892 36.3689 12.8978 36.3689H27.0994C27.5143 36.3689 27.8977 36.1864 28.1504 35.8633L37.0045 24.8042C37.2636 24.4811 37.3542 24.0678 37.2636 23.665L34.1044 9.87208C34.0117 9.46925 33.7485 9.14194 33.3757 8.95943L20.5813 2.82029C20.2085 2.64406 19.783 2.64406 19.4103 2.82029H19.4159Z" fill="#912666"/>
<circle cx="20" cy="9.5239" r="1.90476" fill="#912666"/>
<circle cx="29.1426" cy="14.4761" r="1.90476" fill="#912666"/>
<circle cx="10.8569" cy="14.4761" r="1.90476" fill="#912666"/>
<circle cx="10.8569" cy="25.143" r="1.90476" fill="#912666"/>
<circle cx="29.1426" cy="25.143" r="1.90476" fill="#912666"/>
<circle cx="20" cy="29.5239" r="1.90476" fill="#912666"/>
<rect x="23.542" y="18.6865" width="1.60723" height="5.68204" transform="rotate(-119.62 23.542 18.6865)" fill="#912666"/>
<rect x="11.6187" y="15.8691" width="1.60723" height="5.68204" transform="rotate(-60.0988 11.6187 15.8691)" fill="#912666"/>
<rect x="19.2378" y="10.667" width="1.60723" height="5.68204" fill="#912666"/>
<rect x="18.625" y="9.79688" width="1.60723" height="7.37921" transform="rotate(63.3536 18.625 9.79688)" fill="#912666"/>
<rect x="28.2207" y="13.1826" width="1.60723" height="7.37921" transform="rotate(118.034 28.2207 13.1826)" fill="#912666"/>
<rect x="19.8638" y="29.2998" width="1.60762" height="8.55519" rx="0.803809" transform="rotate(117.294 19.8638 29.2998)" fill="#912666"/>
<rect x="11.6606" y="24.1904" width="1.52381" height="8.38095" transform="rotate(-180 11.6606 24.1904)" fill="#912666"/>
<rect x="29.9878" y="23.5693" width="1.60723" height="7.37921" transform="rotate(-180 29.9878 23.5693)" fill="#912666"/>
<rect x="27.8447" y="25.4307" width="1.60723" height="7.53565" transform="rotate(63.7872 27.8447 25.4307)" fill="#912666"/>
<rect x="19.2378" y="23.2383" width="1.60723" height="5.68204" fill="#912666"/>
<rect x="22.248" y="22.0332" width="1.60723" height="6.0469" transform="rotate(-58.7795 22.248 22.0332)" fill="#912666"/>
<rect x="12.6353" y="25.0605" width="1.60723" height="5.68204" transform="rotate(-120.927 12.6353 25.0605)" fill="#912666"/>
<circle cx="20" cy="19.8095" r="3.05952" stroke="#912666" stroke-width="1.5"/>
<path d="M51.66 28.3279C49.9533 28.3279 48.6 27.8479 47.6 26.8879C46.6 25.9145 46.1 24.5145 46.1 22.6879V19.4079C46.1 17.5812 46.6 16.1879 47.6 15.2279C48.6 14.2545 49.9533 13.7679 51.66 13.7679C53.34 13.7679 54.6333 14.2345 55.54 15.1679C56.46 16.1012 56.92 17.3745 56.92 18.9879V19.1079H54.78V18.9279C54.78 17.9812 54.52 17.2079 54 16.6079C53.4933 16.0079 52.7133 15.7079 51.66 15.7079C50.5933 15.7079 49.76 16.0345 49.16 16.6879C48.56 17.3279 48.26 18.2212 48.26 19.3679V22.7279C48.26 23.8612 48.56 24.7545 49.16 25.4079C49.76 26.0612 50.5933 26.3879 51.66 26.3879C52.7133 26.3879 53.4933 26.0879 54 25.4879C54.52 24.8745 54.78 24.1012 54.78 23.1679V22.8279H56.92V23.1079C56.92 24.7212 56.46 25.9945 55.54 26.9279C54.6333 27.8612 53.34 28.3279 51.66 28.3279ZM63.9916 28.3279C63.0049 28.3279 62.1249 28.1279 61.3516 27.7279C60.5916 27.3145 59.9916 26.7279 59.5516 25.9679C59.1116 25.2079 58.8916 24.3079 58.8916 23.2679V22.9679C58.8916 21.9279 59.1116 21.0345 59.5516 20.2879C59.9916 19.5279 60.5916 18.9412 61.3516 18.5279C62.1249 18.1145 63.0049 17.9079 63.9916 17.9079C64.9782 17.9079 65.8582 18.1145 66.6316 18.5279C67.4049 18.9412 68.0116 19.5279 68.4516 20.2879C68.8916 21.0345 69.1116 21.9279 69.1116 22.9679V23.2679C69.1116 24.3079 68.8916 25.2079 68.4516 25.9679C68.0116 26.7279 67.4049 27.3145 66.6316 27.7279C65.8582 28.1279 64.9782 28.3279 63.9916 28.3279ZM63.9916 26.4879C64.8982 26.4879 65.6316 26.2012 66.1916 25.6279C66.7649 25.0412 67.0516 24.2345 67.0516 23.2079V23.0279C67.0516 22.0012 66.7716 21.2012 66.2116 20.6279C65.6516 20.0412 64.9116 19.7479 63.9916 19.7479C63.0982 19.7479 62.3649 20.0412 61.7916 20.6279C61.2316 21.2012 60.9516 22.0012 60.9516 23.0279V23.2079C60.9516 24.2345 61.2316 25.0412 61.7916 25.6279C62.3649 26.2012 63.0982 26.4879 63.9916 26.4879ZM75.7163 28.3279C74.4629 28.3279 73.4229 28.0479 72.5963 27.4879C71.7696 26.9279 71.2629 26.0812 71.0763 24.9479L72.9963 24.4879C73.1029 25.0345 73.2829 25.4679 73.5363 25.7879C73.7896 26.1079 74.1029 26.3345 74.4763 26.4679C74.8629 26.6012 75.2763 26.6679 75.7163 26.6679C76.3696 26.6679 76.8696 26.5412 77.2163 26.2879C77.5763 26.0345 77.7563 25.7079 77.7563 25.3079C77.7563 24.9079 77.5896 24.6145 77.2563 24.4279C76.9229 24.2412 76.4296 24.0879 75.7763 23.9679L75.0963 23.8479C74.4296 23.7279 73.8229 23.5545 73.2763 23.3279C72.7296 23.1012 72.2963 22.7879 71.9763 22.3879C71.6563 21.9879 71.4963 21.4745 71.4963 20.8479C71.4963 19.9145 71.8429 19.1945 72.5363 18.6879C73.2296 18.1679 74.1496 17.9079 75.2962 17.9079C76.4029 17.9079 77.3096 18.1612 78.0163 18.6679C78.7363 19.1612 79.2029 19.8345 79.4163 20.6879L77.4963 21.2279C77.3763 20.6279 77.1229 20.2079 76.7363 19.9679C76.3496 19.7145 75.8696 19.5879 75.2962 19.5879C74.7363 19.5879 74.2963 19.6945 73.9763 19.9079C73.6563 20.1079 73.4963 20.3945 73.4963 20.7679C73.4963 21.1679 73.6496 21.4612 73.9563 21.6479C74.2763 21.8345 74.7029 21.9745 75.2363 22.0679L75.9363 22.1879C76.6429 22.3079 77.2896 22.4745 77.8763 22.6879C78.4629 22.9012 78.9229 23.2079 79.2563 23.6079C79.6029 24.0079 79.7763 24.5412 79.7763 25.2079C79.7763 26.1945 79.4096 26.9612 78.6763 27.5079C77.9429 28.0545 76.9563 28.3279 75.7163 28.3279ZM85.6692 28.0479C85.0692 28.0479 84.5892 27.8679 84.2292 27.5079C83.8826 27.1479 83.7092 26.6679 83.7092 26.0679V19.9279H80.9892V18.1879H83.7092V14.9279H85.7692V18.1879H88.7092V19.9279H85.7692V25.7079C85.7692 26.1079 85.9559 26.3079 86.3292 26.3079H88.3892V28.0479H85.6692ZM95.9294 28.3279C94.9294 28.3279 94.036 28.1145 93.2494 27.6879C92.4627 27.2479 91.8427 26.6079 91.3894 25.7679C90.936 24.9279 90.7094 23.9012 90.7094 22.6879V19.4079C90.7094 17.5812 91.2094 16.1879 92.2094 15.2279C93.2094 14.2545 94.5627 13.7679 96.2694 13.7679C97.9494 13.7679 99.2427 14.2279 100.149 15.1479C101.056 16.0545 101.509 17.2745 101.509 18.8079V18.9079H99.3694V18.7479C99.3694 18.1745 99.256 17.6612 99.0294 17.2079C98.8027 16.7412 98.4627 16.3745 98.0094 16.1079C97.556 15.8412 96.976 15.7079 96.2694 15.7079C95.2027 15.7079 94.3694 16.0345 93.7694 16.6879C93.1694 17.3279 92.8694 18.2212 92.8694 19.3679V22.7279C92.8694 23.8612 93.1694 24.7612 93.7694 25.4279C94.3694 26.0812 95.2094 26.4079 96.2894 26.4079C97.356 26.4079 98.136 26.1145 98.6294 25.5279C99.1227 24.9412 99.3694 24.1812 99.3694 23.2479V22.9879H95.6094V21.1279H101.509V28.0479H99.5094V26.6279H99.1894C99.0694 26.8812 98.8894 27.1412 98.6494 27.4079C98.4227 27.6745 98.0894 27.8945 97.6494 28.0679C97.2227 28.2412 96.6494 28.3279 95.9294 28.3279ZM104.352 28.0479V18.1879H106.372V19.3479H106.692C106.852 18.9345 107.105 18.6345 107.452 18.4479C107.812 18.2479 108.252 18.1479 108.772 18.1479H109.952V20.0079H108.692C108.025 20.0079 107.479 20.1945 107.052 20.5679C106.625 20.9279 106.412 21.4879 106.412 22.2479V28.0479H104.352ZM114.873 28.3279C114.166 28.3279 113.533 28.2079 112.973 27.9679C112.426 27.7279 111.986 27.3745 111.653 26.9079C111.333 26.4412 111.173 25.8745 111.173 25.2079C111.173 24.5279 111.333 23.9679 111.653 23.5279C111.986 23.0745 112.433 22.7345 112.993 22.5079C113.566 22.2812 114.213 22.1679 114.933 22.1679H117.933V21.5279C117.933 20.9545 117.76 20.4945 117.413 20.1479C117.066 19.8012 116.533 19.6279 115.813 19.6279C115.106 19.6279 114.566 19.7945 114.193 20.1279C113.82 20.4612 113.573 20.8945 113.453 21.4279L111.533 20.8079C111.693 20.2745 111.946 19.7945 112.293 19.3679C112.653 18.9279 113.126 18.5745 113.713 18.3079C114.3 18.0412 115.006 17.9079 115.833 17.9079C117.113 17.9079 118.12 18.2345 118.853 18.8879C119.586 19.5412 119.953 20.4679 119.953 21.6679V25.7279C119.953 26.1279 120.14 26.3279 120.513 26.3279H121.353V28.0479H119.813C119.346 28.0479 118.966 27.9279 118.673 27.6879C118.38 27.4479 118.233 27.1212 118.233 26.7079V26.6479H117.933C117.826 26.8479 117.666 27.0812 117.453 27.3479C117.24 27.6145 116.926 27.8479 116.513 28.0479C116.1 28.2345 115.553 28.3279 114.873 28.3279ZM115.173 26.6279C116 26.6279 116.666 26.3945 117.173 25.9279C117.68 25.4479 117.933 24.7945 117.933 23.9679V23.7679H115.053C114.506 23.7679 114.066 23.8879 113.733 24.1279C113.4 24.3545 113.233 24.6945 113.233 25.1479C113.233 25.6012 113.406 25.9612 113.753 26.2279C114.1 26.4945 114.573 26.6279 115.173 26.6279ZM123.356 32.0479V18.1879H125.376V19.6079H125.696C125.949 19.1679 126.329 18.7745 126.836 18.4279C127.356 18.0812 128.096 17.9079 129.056 17.9079C129.883 17.9079 130.636 18.1079 131.316 18.5079C132.009 18.9079 132.563 19.4879 132.976 20.2479C133.403 20.9945 133.616 21.9012 133.616 22.9679V23.2679C133.616 24.3345 133.409 25.2479 132.996 26.0079C132.583 26.7545 132.029 27.3279 131.336 27.7279C130.643 28.1279 129.883 28.3279 129.056 28.3279C128.416 28.3279 127.876 28.2479 127.436 28.0879C126.996 27.9279 126.643 27.7279 126.376 27.4879C126.109 27.2345 125.896 26.9745 125.736 26.7079H125.416V32.0479H123.356ZM128.456 26.5279C129.363 26.5279 130.103 26.2412 130.676 25.6679C131.249 25.0945 131.536 24.2745 131.536 23.2079V23.0279C131.536 21.9745 131.243 21.1612 130.656 20.5879C130.083 20.0145 129.349 19.7279 128.456 19.7279C127.576 19.7279 126.843 20.0145 126.256 20.5879C125.683 21.1612 125.396 21.9745 125.396 23.0279V23.2079C125.396 24.2745 125.683 25.0945 126.256 25.6679C126.843 26.2412 127.576 26.5279 128.456 26.5279ZM136.168 28.0479V14.0479H138.228V19.5879H138.548C138.682 19.3345 138.868 19.0879 139.108 18.8479C139.362 18.6079 139.688 18.4145 140.088 18.2679C140.502 18.1079 141.022 18.0279 141.648 18.0279C142.395 18.0279 143.055 18.1945 143.628 18.5279C144.215 18.8612 144.675 19.3345 145.008 19.9479C145.342 20.5479 145.508 21.2745 145.508 22.1279V28.0479H143.448V22.2879C143.448 21.4345 143.235 20.8079 142.808 20.4079C142.382 19.9945 141.795 19.7879 141.048 19.7879C140.195 19.7879 139.508 20.0679 138.988 20.6279C138.482 21.1879 138.228 22.0012 138.228 23.0679V28.0479H136.168Z" fill="#912666"/>
</svg>
